# Made in Blockbench 5.0.7
mtllib spike.mtl

o mesh
v 0 1 0
v 0.5 0 0.5
v 0.5 0 -0.5
v -0.5 0 0.5
v -0.5 0 -0.5
vt 0 1
vt 0 0
vt 1 0
vt 1 1
vt 1 0
vt 0 0
vt 1 0
vt 1 1
vt 0 1
vt 0 0
vt 1 1
vt 1 0
vt 0 0
vt 0 0
vt 1 1
vt 1 0
vn 0.8944271909999161 0.44721359549995804 0
vn 0.8944271909999161 -0.44721359549995804 0
vn 0 -1 0
vn 0 -0.44721359549995804 -0.8944271909999161
vn 0 -0.44721359549995804 0.8944271909999161
usemtl m_d4be013c-056e-345d-0c63-b000625cb588
f 1/1/1 2/2/1 3/3/1
f 1/4/2 4/5/2 5/6/2
usemtl m_03c18107-5147-31e4-4eff-d5e21ca9df0e
f 3/7/3 2/8/3 4/9/3 5/10/3
usemtl m_d4be013c-056e-345d-0c63-b000625cb588
f 1/11/4 2/12/4 4/13/4
f 3/14/5 1/15/5 5/16/5